<svg version="1.1" id="Layer_1" xmlns="http://www.w3.org/2000/svg" xmlns:xlink="http://www.w3.org/1999/xlink" x="0px" y="0px" width="100%" viewBox="0 0 1465 226" enable-background="new 0 0 1465 226" xml:space="preserve">
	<path fill="#FFFFFF" opacity="1.000000" stroke="none" d="
M849.000000,1.000005 
	C1054.666626,1.000000 1260.333374,1.000000 1466.000000,1.002002 
	C1466.000000,2.336261 1466.000000,3.668518 1465.630615,5.372562 
	C1463.260864,5.162925 1461.261597,4.078207 1459.259888,4.073979 
	C1413.788940,3.977929 1368.317871,4.044468 1322.847046,3.935201 
	C1318.006714,3.923570 1316.203613,6.567772 1316.080688,10.546997 
	C1315.823608,18.867069 1315.823486,27.206177 1316.080688,35.526249 
	C1316.205078,39.548969 1318.135010,42.131840 1322.921021,42.067158 
	C1336.909668,41.878120 1350.902344,41.992672 1364.893433,42.010036 
	C1366.496826,42.012028 1368.099976,42.151825 1370.000000,42.241772 
	C1370.000000,44.608643 1370.000000,46.583874 1370.000000,48.559105 
	C1370.000000,103.857178 1369.996948,159.155243 1370.004028,214.453323 
	C1370.004883,220.934830 1372.416382,223.800995 1378.600952,223.946075 
	C1387.257324,224.149155 1395.926514,224.166428 1404.581543,223.936859 
	C1410.426758,223.781830 1411.998047,221.838043 1411.998291,215.989777 
	C1412.001099,160.025467 1412.000000,104.061157 1412.000000,48.096848 
	C1412.000000,46.166241 1412.000000,44.235638 1412.000000,42.000000 
	C1427.612061,42.000000 1442.579102,42.102032 1457.542114,41.909725 
	C1460.369141,41.873390 1463.181152,40.666679 1466.000000,40.000008 
	C1466.000000,102.300514 1466.000000,164.601028 1466.000000,227.000000 
	C1257.642578,227.000000 1049.285156,227.000000 840.649048,226.634583 
	C849.565857,224.182999 859.002319,222.817764 867.900757,219.843033 
	C881.507263,215.294403 893.637512,207.975937 903.999207,197.741562 
	C907.603577,194.181381 909.627014,189.961868 904.557556,185.012085 
	C898.957275,179.544037 893.456482,173.973618 887.942261,168.418167 
	C884.655151,165.106430 882.744141,163.162384 876.595825,167.949646 
	C863.588318,178.077744 848.844727,184.288086 832.481873,184.781952 
	C816.435120,185.266281 801.570007,180.549286 788.660889,170.335602 
	C766.485779,152.790573 757.493591,129.498993 761.351196,102.205566 
	C764.977905,76.545280 778.869446,57.084850 803.280518,46.355228 
	C815.285950,41.078373 827.779297,39.739891 840.805542,41.824833 
	C854.776489,44.060997 866.824585,50.005875 877.571411,58.997086 
	C880.735291,61.644100 883.820923,62.022575 887.062866,58.552967 
	C892.403809,52.836887 898.102478,47.456303 903.604553,41.889126 
	C909.010498,36.419270 909.012817,32.689144 903.074768,27.643892 
	C891.910950,18.158745 879.682495,10.408936 865.559387,6.014503 
	C860.052612,4.301081 854.520569,2.669100 849.000000,1.000005 
M1251.000000,103.500000 
	C1251.000000,116.238365 1251.000000,128.976730 1251.000000,142.690155 
	C1249.283203,141.360199 1248.260010,140.842468 1247.613281,140.026352 
	C1231.331787,119.478180 1215.062622,98.919960 1198.848022,78.319000 
	C1180.611328,55.149017 1162.445557,31.923275 1144.206543,8.755180 
	C1141.680054,5.546004 1138.799683,3.460263 1134.096191,3.858337 
	C1127.477051,4.418522 1120.775024,3.978596 1114.108643,4.006840 
	C1108.800293,4.029331 1107.007812,5.812027 1107.006958,11.142777 
	C1106.996582,79.307610 1106.997070,147.472443 1107.005371,215.637283 
	C1107.006104,221.578018 1109.288086,223.911911 1115.376343,223.977753 
	C1123.541748,224.066071 1131.710449,224.094666 1139.874878,223.969055 
	C1146.331787,223.869720 1147.998779,222.048813 1147.999146,215.689621 
	C1148.000977,171.690796 1148.000000,127.691986 1148.000000,83.693169 
	C1148.000000,81.969559 1148.000000,80.245956 1148.000000,77.688217 
	C1149.496338,79.092278 1150.306030,79.672050 1150.889404,80.426872 
	C1158.901001,90.792847 1166.938843,101.139343 1174.856079,111.577263 
	C1186.913818,127.473816 1198.823975,143.482330 1210.903809,159.361877 
	C1225.964478,179.159973 1241.125122,198.882126 1256.266724,218.618561 
	C1258.442017,221.454025 1260.859131,223.363007 1264.994141,223.120193 
	C1272.302002,222.691101 1279.658081,222.839722 1286.984741,223.058411 
	C1291.573730,223.195374 1293.062500,221.271164 1293.057251,216.827454 
	C1292.975220,148.329391 1293.002686,79.831192 1292.994629,11.333037 
	C1292.994019,5.769940 1291.205322,4.016840 1285.581543,4.004586 
	C1277.415161,3.986791 1269.248657,3.999347 1261.082275,4.000181 
	C1252.433105,4.001063 1251.004272,5.405457 1251.002441,14.002380 
	C1250.995972,43.501587 1251.000000,73.000793 1251.000000,103.500000 
M1058.000000,106.587265 
	C1058.574951,97.279968 1058.505737,93.844185 1045.358643,93.951874 
	C1023.703552,94.129265 1002.046082,93.999992 980.389587,93.999985 
	C978.645813,93.999977 976.902039,93.999985 975.273804,93.999985 
	C975.273804,76.272552 975.273804,59.342365 975.273804,42.000000 
	C977.337280,42.000000 979.131958,42.000000 980.926697,42.000000 
	C1009.579895,41.999981 1038.233276,41.942081 1066.885986,42.060017 
	C1071.377319,42.078503 1073.183472,40.469555 1073.059326,35.930775 
	C1072.845093,28.106985 1072.809814,20.267031 1073.059448,12.445345 
	C1073.264160,6.030328 1073.374512,3.977738 1064.619873,3.984970 
	C1023.639160,4.018820 982.658386,3.999490 941.677673,4.000469 
	C934.255981,4.000646 933.000732,5.239031 933.000610,12.567037 
	C932.999634,79.702110 932.999817,146.837189 933.000183,213.972260 
	C933.000244,222.348587 934.670471,223.997726 943.203247,223.998474 
	C983.017822,224.001968 1022.832397,224.000015 1062.646973,224.000000 
	C1063.313354,224.000000 1063.980225,224.016678 1064.645996,223.996933 
	C1071.360352,223.797943 1072.997559,222.117615 1072.999390,215.425400 
	C1073.001465,207.928925 1073.005981,200.432449 1072.998169,192.935974 
	C1072.991455,186.535904 1071.492065,185.003998 1065.190552,185.002640 
	C1037.037109,184.996567 1008.883667,185.000000 980.730225,185.000000 
	C978.953430,185.000000 977.176636,185.000000 975.330078,185.000000 
	C975.330078,167.395493 975.330078,150.348099 975.330078,133.000000 
	C977.467224,133.000000 979.276489,133.000000 981.085754,133.000000 
	C1004.074951,132.999985 1027.064209,133.015808 1050.053345,132.989120 
	C1055.976685,132.982239 1057.980713,131.056503 1057.996094,125.554352 
	C1058.013062,119.557220 1058.000000,113.560005 1058.000000,106.587265 
z" />
	<path fill="#FFFFFF" opacity="1.000000" stroke="none" d="
M87.000000,1.000000 
	C327.361359,1.000000 567.722717,1.000000 808.410522,1.363111 
	C807.056396,2.183955 805.383179,2.671011 803.694153,3.095045 
	C777.478149,9.676820 755.629456,22.967302 738.910156,44.518482 
	C719.387146,69.683571 712.288574,98.243172 716.187866,129.412109 
	C718.760925,149.980148 726.842041,168.532455 740.155151,184.772369 
	C757.126465,205.474564 778.504578,218.597229 804.670593,224.091660 
	C807.524780,224.690994 810.227173,226.013138 813.000000,227.000000 
	C570.305298,227.000000 327.610596,227.000000 84.621124,226.647552 
	C87.654137,225.527252 91.005638,224.849014 94.305710,223.976273 
	C110.019188,219.820755 123.656830,212.035477 132.682358,198.361633 
	C142.052460,184.165771 145.461014,168.392365 143.206543,151.086472 
	C140.859390,133.069199 132.170532,119.362068 119.149132,109.063858 
	C124.199066,101.866959 129.995132,95.372940 133.735809,87.856087 
	C139.162048,76.952148 140.292023,65.084450 138.086151,52.850727 
	C134.562683,33.309608 125.213104,17.944626 107.234871,8.811505 
	C100.822105,5.553759 93.763702,3.566941 87.000000,1.000000 
M535.000000,202.498993 
	C535.000000,206.831070 534.998230,211.163147 535.000427,215.495224 
	C535.003784,222.135880 536.665283,223.896255 543.426819,223.977661 
	C551.256897,224.071960 559.089172,224.030914 566.920105,223.990921 
	C574.291443,223.953278 575.996277,222.241302 575.997925,214.998917 
	C576.003479,191.172119 576.000000,167.345306 576.000000,143.518509 
	C576.000000,141.761917 576.000000,140.005325 576.000000,138.001144 
	C586.850525,138.001144 597.000610,137.877319 607.140869,138.137268 
	C608.628357,138.175400 610.677429,139.709747 611.432861,141.109680 
	C616.482605,150.467377 621.306763,159.948730 626.100281,169.442383 
	C634.447327,185.973923 642.827393,202.490692 650.931152,219.141357 
	C652.553406,222.474548 654.969360,223.874893 658.140381,223.928238 
	C668.634583,224.104782 679.138794,224.198212 689.628723,223.923187 
	C696.322876,223.747681 699.085022,217.760605 695.507568,212.024399 
	C694.297607,210.084213 693.131287,208.112946 692.032471,206.107956 
	C686.142212,195.360046 680.222656,184.627533 674.421814,173.831314 
	C667.571655,161.082123 660.832275,148.273361 653.968567,135.346619 
	C655.303833,134.524338 656.354492,133.725754 657.523315,133.180588 
	C671.744812,126.547287 683.339539,116.870720 691.198120,103.206360 
	C699.155640,89.370163 701.265564,74.426079 698.358154,58.761185 
	C695.477173,43.238708 687.684387,30.648567 675.855347,20.290127 
	C664.598877,10.433135 651.450562,4.506580 636.745605,4.200681 
	C605.267822,3.545869 573.767029,4.008069 542.275635,3.993157 
	C536.123413,3.990244 534.886902,5.626569 534.901672,11.551654 
	C535.059753,74.867241 535.000000,138.183380 535.000000,202.498993 
M402.000336,181.312408 
	C402.000336,165.364120 402.000336,149.415817 402.000336,133.000000 
	C404.272339,133.000000 406.060486,133.000000 407.848602,133.000000 
	C431.177368,133.000000 454.506134,133.009140 477.834900,132.993042 
	C483.161835,132.989365 484.971924,131.189499 484.992737,125.915627 
	C485.021667,118.583847 485.000122,111.251862 485.000000,103.919968 
	C484.999878,95.267609 483.738647,94.005363 474.988037,94.002480 
	C452.492462,93.995064 429.996857,93.999992 407.501282,93.999992 
	C405.746246,93.999992 403.991241,93.999992 402.239807,93.999992 
	C402.239807,76.347969 402.239807,59.415203 402.239807,42.000000 
	C404.258636,42.000000 406.045288,42.000000 407.831970,42.000000 
	C436.326385,42.000000 464.820801,42.003471 493.315216,41.997047 
	C498.985596,41.995766 500.946259,40.063320 500.987000,34.288692 
	C501.039917,26.790535 501.037323,19.291477 500.988129,11.793270 
	C500.948853,5.806672 499.034058,4.001787 492.897308,4.001390 
	C451.738708,3.998723 410.580109,3.999885 369.421509,4.000100 
	C361.352936,4.000142 360.000977,5.355010 360.000793,13.473771 
	C359.999359,80.127380 360.000000,146.780991 360.000092,213.434601 
	C360.000092,221.744614 362.214447,223.997879 370.403687,223.999054 
	C390.733032,224.001938 411.062378,224.000015 431.391724,224.000000 
	C451.221161,224.000000 471.050659,224.020508 490.880035,223.989532 
	C498.487488,223.977646 500.988892,221.446869 500.998932,213.967209 
	C501.004761,209.634720 500.938873,205.301224 501.010834,200.969940 
	C501.284332,184.514679 501.312378,184.881378 484.926636,184.964493 
	C458.765778,185.097214 432.603699,185.017105 406.442261,184.963760 
	C404.575348,184.959946 401.691864,186.095795 402.000336,181.312408 
M330.505798,46.004776 
	C329.300598,43.531559 328.299988,40.931568 326.858337,38.604858 
	C313.234314,16.616533 293.519958,4.627946 267.606415,4.106762 
	C242.953674,3.610935 218.283157,3.999180 193.620453,4.000524 
	C186.623550,4.000905 185.003525,5.633430 185.002991,12.775665 
	C184.997955,79.931526 184.998062,147.087387 185.002899,214.243240 
	C185.003403,221.221802 187.507629,223.891479 194.396988,223.976578 
	C202.394485,224.075378 210.394577,224.052475 218.392700,223.983246 
	C224.874603,223.927155 226.993576,221.757233 226.996338,215.370300 
	C227.005829,193.373840 226.999985,171.377380 227.000000,149.380920 
	C227.000015,147.637604 227.000000,145.894272 227.000000,144.000000 
	C240.796722,144.000000 253.791290,144.081818 266.784454,143.982071 
	C290.028229,143.803635 308.946442,134.192780 322.472107,115.673645 
	C337.881531,94.575287 340.237061,71.159126 330.505798,46.004776 
z" />
	<path fill="#6741D9" opacity="1.000000" stroke="none" d="
M86.531342,1.000000 
	C93.763702,3.566941 100.822105,5.553759 107.234871,8.811505 
	C125.213104,17.944626 134.562683,33.309608 138.086151,52.850727 
	C140.292023,65.084450 139.162048,76.952148 133.735809,87.856087 
	C129.995132,95.372940 124.199066,101.866959 119.149132,109.063858 
	C132.170532,119.362068 140.859390,133.069199 143.206543,151.086472 
	C145.461014,168.392365 142.052460,184.165771 132.682358,198.361633 
	C123.656830,212.035477 110.019188,219.820755 94.305710,223.976273 
	C91.005638,224.849014 87.654137,225.527252 84.163162,226.647552 
	C76.645752,227.000000 69.291496,227.000000 61.305374,226.647491 
	C57.354317,225.527222 54.014355,224.839005 50.719345,223.978638 
	C31.420410,218.939438 16.190180,208.556000 7.644487,190.030136 
	C4.843179,183.957291 3.182368,177.358353 1.000000,171.000000 
	C1.000000,164.312363 1.000000,157.624710 1.359904,150.291718 
	C4.394469,132.489838 12.741177,118.733727 26.014139,108.813095 
	C21.302464,102.550980 15.767990,96.881340 12.238573,90.158989 
	C4.520049,75.457787 4.058184,59.888935 8.872021,43.957710 
	C14.108023,26.629341 24.658512,14.126987 41.259407,6.996550 
	C46.976707,4.540844 53.075485,2.973282 59.000000,1.000000 
	C68.020897,1.000000 77.041786,1.000000 86.531342,1.000000 
M80.385406,191.023590 
	C83.695129,189.737701 87.300117,188.926498 90.263252,187.083389 
	C102.802773,179.283646 106.383301,167.069855 104.752289,153.406021 
	C103.791145,145.354004 100.235695,138.035782 93.338364,132.575867 
	C84.861130,125.865273 75.209236,124.147148 65.341469,126.342735 
	C59.430073,127.658035 52.993214,130.810577 48.875237,135.125153 
	C39.924957,144.502731 37.834602,156.545700 41.140984,169.014221 
	C45.777237,186.497726 63.384327,195.018372 80.385406,191.023590 
M61.154633,37.369335 
	C53.063583,41.019245 47.960781,46.990910 45.616753,55.716000 
	C42.960293,65.604019 47.327274,79.520248 54.901318,85.039886 
	C67.380638,94.134285 83.829948,93.074570 94.413452,80.074501 
	C103.402534,69.032906 101.889320,51.115414 90.408684,41.723175 
	C81.735336,34.627571 72.237389,33.468369 61.154633,37.369335 
z" />
	<path fill="#6741D9" opacity="1.000000" stroke="none" d="
M813.468628,227.000000 
	C810.227173,226.013138 807.524780,224.690994 804.670593,224.091660 
	C778.504578,218.597229 757.126465,205.474564 740.155151,184.772369 
	C726.842041,168.532455 718.760925,149.980148 716.187866,129.412109 
	C712.288574,98.243172 719.387146,69.683571 738.910156,44.518482 
	C755.629456,22.967302 777.478149,9.676820 803.694153,3.095045 
	C805.383179,2.671011 807.056396,2.183955 808.868469,1.363111 
	C822.020874,1.000000 835.041809,1.000000 848.531372,1.000005 
	C854.520569,2.669100 860.052612,4.301081 865.559387,6.014503 
	C879.682495,10.408936 891.910950,18.158745 903.074768,27.643892 
	C909.012817,32.689144 909.010498,36.419270 903.604553,41.889126 
	C898.102478,47.456303 892.403809,52.836887 887.062866,58.552967 
	C883.820923,62.022575 880.735291,61.644100 877.571411,58.997086 
	C866.824585,50.005875 854.776489,44.060997 840.805542,41.824833 
	C827.779297,39.739891 815.285950,41.078373 803.280518,46.355228 
	C778.869446,57.084850 764.977905,76.545280 761.351196,102.205566 
	C757.493591,129.498993 766.485779,152.790573 788.660889,170.335602 
	C801.570007,180.549286 816.435120,185.266281 832.481873,184.781952 
	C848.844727,184.288086 863.588318,178.077744 876.595825,167.949646 
	C882.744141,163.162384 884.655151,165.106430 887.942261,168.418167 
	C893.456482,173.973618 898.957275,179.544037 904.557556,185.012085 
	C909.627014,189.961868 907.603577,194.181381 903.999207,197.741562 
	C893.637512,207.975937 881.507263,215.294403 867.900757,219.843033 
	C859.002319,222.817764 849.565857,224.182999 840.185181,226.634583 
	C831.312439,227.000000 822.624817,227.000000 813.468628,227.000000 
z" />
	<path fill="#6741D9" opacity="1.000000" stroke="none" d="
M1466.000000,39.531349 
	C1463.181152,40.666679 1460.369141,41.873390 1457.542114,41.909725 
	C1442.579102,42.102032 1427.612061,42.000000 1412.000000,42.000000 
	C1412.000000,44.235638 1412.000000,46.166241 1412.000000,48.096848 
	C1412.000000,104.061157 1412.001099,160.025467 1411.998291,215.989777 
	C1411.998047,221.838043 1410.426758,223.781830 1404.581543,223.936859 
	C1395.926514,224.166428 1387.257324,224.149155 1378.600952,223.946075 
	C1372.416382,223.800995 1370.004883,220.934830 1370.004028,214.453323 
	C1369.996948,159.155243 1370.000000,103.857178 1370.000000,48.559105 
	C1370.000000,46.583874 1370.000000,44.608643 1370.000000,42.241772 
	C1368.099976,42.151825 1366.496826,42.012028 1364.893433,42.010036 
	C1350.902344,41.992672 1336.909668,41.878120 1322.921021,42.067158 
	C1318.135010,42.131840 1316.205078,39.548969 1316.080688,35.526249 
	C1315.823486,27.206177 1315.823608,18.867069 1316.080688,10.546997 
	C1316.203613,6.567772 1318.006714,3.923570 1322.847046,3.935201 
	C1368.317871,4.044468 1413.788940,3.977929 1459.259888,4.073979 
	C1461.261597,4.078207 1463.260864,5.162925 1465.630615,5.872175 
	C1466.000000,17.020895 1466.000000,28.041788 1466.000000,39.531349 
z" />
	<path fill="#FFFFFF" opacity="1.000000" stroke="none" d="
M58.531342,1.000000 
	C53.075485,2.973282 46.976707,4.540844 41.259407,6.996550 
	C24.658512,14.126987 14.108023,26.629341 8.872021,43.957710 
	C4.058184,59.888935 4.520049,75.457787 12.238573,90.158989 
	C15.767990,96.881340 21.302464,102.550980 26.014139,108.813095 
	C12.741177,118.733727 4.394469,132.489838 1.359904,149.823181 
	C1.000000,100.438507 1.000000,50.877018 1.000000,1.000000 
	C20.019732,1.000000 39.041206,1.000000 58.531342,1.000000 
z" />
	<path fill="#FFFFFF" opacity="1.000000" stroke="none" d="
M1.000000,171.468658 
	C3.182368,177.358353 4.843179,183.957291 7.644487,190.030136 
	C16.190180,208.556000 31.420410,218.939438 50.719345,223.978638 
	C54.014355,224.839005 57.354317,225.527222 60.836754,226.647491 
	C41.075722,227.000000 21.151445,227.000000 1.000000,227.000000 
	C1.000000,208.646393 1.000000,190.291855 1.000000,171.468658 
z" />
	<path fill="#6741D9" opacity="1.000000" stroke="none" d="
M1251.000000,103.000000 
	C1251.000000,73.000793 1250.995972,43.501587 1251.002441,14.002380 
	C1251.004272,5.405457 1252.433105,4.001063 1261.082275,4.000181 
	C1269.248657,3.999347 1277.415161,3.986791 1285.581543,4.004586 
	C1291.205322,4.016840 1292.994019,5.769940 1292.994629,11.333037 
	C1293.002686,79.831192 1292.975220,148.329391 1293.057251,216.827454 
	C1293.062500,221.271164 1291.573730,223.195374 1286.984741,223.058411 
	C1279.658081,222.839722 1272.302002,222.691101 1264.994141,223.120193 
	C1260.859131,223.363007 1258.442017,221.454025 1256.266724,218.618561 
	C1241.125122,198.882126 1225.964478,179.159973 1210.903809,159.361877 
	C1198.823975,143.482330 1186.913818,127.473816 1174.856079,111.577263 
	C1166.938843,101.139343 1158.901001,90.792847 1150.889404,80.426872 
	C1150.306030,79.672050 1149.496338,79.092278 1148.000000,77.688217 
	C1148.000000,80.245956 1148.000000,81.969559 1148.000000,83.693169 
	C1148.000000,127.691986 1148.000977,171.690796 1147.999146,215.689621 
	C1147.998779,222.048813 1146.331787,223.869720 1139.874878,223.969055 
	C1131.710449,224.094666 1123.541748,224.066071 1115.376343,223.977753 
	C1109.288086,223.911911 1107.006104,221.578018 1107.005371,215.637283 
	C1106.997070,147.472443 1106.996582,79.307610 1107.006958,11.142777 
	C1107.007812,5.812027 1108.800293,4.029331 1114.108643,4.006840 
	C1120.775024,3.978596 1127.477051,4.418522 1134.096191,3.858337 
	C1138.799683,3.460263 1141.680054,5.546004 1144.206543,8.755180 
	C1162.445557,31.923275 1180.611328,55.149017 1198.848022,78.319000 
	C1215.062622,98.919960 1231.331787,119.478180 1247.613281,140.026352 
	C1248.260010,140.842468 1249.283203,141.360199 1251.000000,142.690155 
	C1251.000000,128.976730 1251.000000,116.238365 1251.000000,103.000000 
z" />
	<path fill="#6741D9" opacity="1.000000" stroke="none" d="
M1058.000000,107.075043 
	C1058.000000,113.560005 1058.013062,119.557220 1057.996094,125.554352 
	C1057.980713,131.056503 1055.976685,132.982239 1050.053345,132.989120 
	C1027.064209,133.015808 1004.074951,132.999985 981.085754,133.000000 
	C979.276489,133.000000 977.467224,133.000000 975.330078,133.000000 
	C975.330078,150.348099 975.330078,167.395493 975.330078,185.000000 
	C977.176636,185.000000 978.953430,185.000000 980.730225,185.000000 
	C1008.883667,185.000000 1037.037109,184.996567 1065.190552,185.002640 
	C1071.492065,185.003998 1072.991455,186.535904 1072.998169,192.935974 
	C1073.005981,200.432449 1073.001465,207.928925 1072.999390,215.425400 
	C1072.997559,222.117615 1071.360352,223.797943 1064.645996,223.996933 
	C1063.980225,224.016678 1063.313354,224.000000 1062.646973,224.000000 
	C1022.832397,224.000015 983.017822,224.001968 943.203247,223.998474 
	C934.670471,223.997726 933.000244,222.348587 933.000183,213.972260 
	C932.999817,146.837189 932.999634,79.702110 933.000610,12.567037 
	C933.000732,5.239031 934.255981,4.000646 941.677673,4.000469 
	C982.658386,3.999490 1023.639160,4.018820 1064.619873,3.984970 
	C1073.374512,3.977738 1073.264160,6.030328 1073.059448,12.445345 
	C1072.809814,20.267031 1072.845093,28.106985 1073.059326,35.930775 
	C1073.183472,40.469555 1071.377319,42.078503 1066.885986,42.060017 
	C1038.233276,41.942081 1009.579895,41.999981 980.926697,42.000000 
	C979.131958,42.000000 977.337280,42.000000 975.273804,42.000000 
	C975.273804,59.342365 975.273804,76.272552 975.273804,93.999985 
	C976.902039,93.999985 978.645813,93.999977 980.389587,93.999985 
	C1002.046082,93.999992 1023.703552,94.129265 1045.358643,93.951874 
	C1058.505737,93.844185 1058.574951,97.279968 1058.000000,107.075043 
z" />
	<path fill="#6741D9" opacity="1.000000" stroke="none" d="
M535.000000,201.999176 
	C535.000000,138.183380 535.059753,74.867241 534.901672,11.551654 
	C534.886902,5.626569 536.123413,3.990244 542.275635,3.993157 
	C573.767029,4.008069 605.267822,3.545869 636.745605,4.200681 
	C651.450562,4.506580 664.598877,10.433135 675.855347,20.290127 
	C687.684387,30.648567 695.477173,43.238708 698.358154,58.761185 
	C701.265564,74.426079 699.155640,89.370163 691.198120,103.206360 
	C683.339539,116.870720 671.744812,126.547287 657.523315,133.180588 
	C656.354492,133.725754 655.303833,134.524338 653.968567,135.346619 
	C660.832275,148.273361 667.571655,161.082123 674.421814,173.831314 
	C680.222656,184.627533 686.142212,195.360046 692.032471,206.107956 
	C693.131287,208.112946 694.297607,210.084213 695.507568,212.024399 
	C699.085022,217.760605 696.322876,223.747681 689.628723,223.923187 
	C679.138794,224.198212 668.634583,224.104782 658.140381,223.928238 
	C654.969360,223.874893 652.553406,222.474548 650.931152,219.141357 
	C642.827393,202.490692 634.447327,185.973923 626.100281,169.442383 
	C621.306763,159.948730 616.482605,150.467377 611.432861,141.109680 
	C610.677429,139.709747 608.628357,138.175400 607.140869,138.137268 
	C597.000610,137.877319 586.850525,138.001144 576.000000,138.001144 
	C576.000000,140.005325 576.000000,141.761917 576.000000,143.518509 
	C576.000000,167.345306 576.003479,191.172119 575.997925,214.998917 
	C575.996277,222.241302 574.291443,223.953278 566.920105,223.990921 
	C559.089172,224.030914 551.256897,224.071960 543.426819,223.977661 
	C536.665283,223.896255 535.003784,222.135880 535.000427,215.495224 
	C534.998230,211.163147 535.000000,206.831070 535.000000,201.999176 
M577.827881,42.145458 
	C577.551941,43.712658 577.045410,45.278568 577.036682,46.847256 
	C576.969849,58.835705 577.000000,70.824692 577.000000,82.813515 
	C577.000000,88.085976 577.000000,93.358437 577.000000,98.993271 
	C596.023254,98.993271 614.534363,99.933411 632.900208,98.703720 
	C648.332031,97.670486 659.056946,83.562050 657.722534,69.231880 
	C656.166565,52.522076 644.836060,42.606167 627.725647,42.104610 
	C611.421814,41.626698 595.092590,42.014694 577.827881,42.145458 
z" />
	<path fill="#6741D9" opacity="1.000000" stroke="none" d="
M402.001648,181.792252 
	C401.691864,186.095795 404.575348,184.959946 406.442261,184.963760 
	C432.603699,185.017105 458.765778,185.097214 484.926636,184.964493 
	C501.312378,184.881378 501.284332,184.514679 501.010834,200.969940 
	C500.938873,205.301224 501.004761,209.634720 500.998932,213.967209 
	C500.988892,221.446869 498.487488,223.977646 490.880035,223.989532 
	C471.050659,224.020508 451.221161,224.000000 431.391724,224.000000 
	C411.062378,224.000015 390.733032,224.001938 370.403687,223.999054 
	C362.214447,223.997879 360.000092,221.744614 360.000092,213.434601 
	C360.000000,146.780991 359.999359,80.127380 360.000793,13.473771 
	C360.000977,5.355010 361.352936,4.000142 369.421509,4.000100 
	C410.580109,3.999885 451.738708,3.998723 492.897308,4.001390 
	C499.034058,4.001787 500.948853,5.806672 500.988129,11.793270 
	C501.037323,19.291477 501.039917,26.790535 500.987000,34.288692 
	C500.946259,40.063320 498.985596,41.995766 493.315216,41.997047 
	C464.820801,42.003471 436.326385,42.000000 407.831970,42.000000 
	C406.045288,42.000000 404.258636,42.000000 402.239807,42.000000 
	C402.239807,59.415203 402.239807,76.347969 402.239807,93.999992 
	C403.991241,93.999992 405.746246,93.999992 407.501282,93.999992 
	C429.996857,93.999992 452.492462,93.995064 474.988037,94.002480 
	C483.738647,94.005363 484.999878,95.267609 485.000000,103.919968 
	C485.000122,111.251862 485.021667,118.583847 484.992737,125.915627 
	C484.971924,131.189499 483.161835,132.989365 477.834900,132.993042 
	C454.506134,133.009140 431.177368,133.000000 407.848602,133.000000 
	C406.060486,133.000000 404.272339,133.000000 402.000336,133.000000 
	C402.000336,149.415817 402.000336,165.364120 402.001648,181.792252 
z" />
	<path fill="#6741D9" opacity="1.000000" stroke="none" d="
M330.718140,46.337055 
	C340.237061,71.159126 337.881531,94.575287 322.472107,115.673645 
	C308.946442,134.192780 290.028229,143.803635 266.784454,143.982071 
	C253.791290,144.081818 240.796722,144.000000 227.000000,144.000000 
	C227.000000,145.894272 227.000015,147.637604 227.000000,149.380920 
	C226.999985,171.377380 227.005829,193.373840 226.996338,215.370300 
	C226.993576,221.757233 224.874603,223.927155 218.392700,223.983246 
	C210.394577,224.052475 202.394485,224.075378 194.396988,223.976578 
	C187.507629,223.891479 185.003403,221.221802 185.002899,214.243240 
	C184.998062,147.087387 184.997955,79.931526 185.002991,12.775665 
	C185.003525,5.633430 186.623550,4.000905 193.620453,4.000524 
	C218.283157,3.999180 242.953674,3.610935 267.606415,4.106762 
	C293.519958,4.627946 313.234314,16.616533 326.858337,38.604858 
	C328.299988,40.931568 329.300598,43.531559 330.718140,46.337055 
M279.501862,100.104034 
	C281.736298,98.167656 284.148438,96.399902 286.173767,94.265144 
	C294.122131,85.887337 296.797699,76.120049 293.442413,64.909691 
	C289.996765,53.397415 281.703979,45.763336 270.552002,44.439762 
	C256.376801,42.757370 241.850586,44.032513 227.307892,44.032513 
	C227.307892,63.881897 227.307892,84.267632 227.307892,105.000000 
	C238.082916,105.000000 248.558350,104.812195 259.023102,105.065430 
	C266.105194,105.236809 272.704926,103.927612 279.501862,100.104034 
z" />
	<path fill="#FFFFFF" opacity="1.000000" stroke="none" d="
M79.954750,191.078430 
	C63.384327,195.018372 45.777237,186.497726 41.140984,169.014221 
	C37.834602,156.545700 39.924957,144.502731 48.875237,135.125153 
	C52.993214,130.810577 59.430073,127.658035 65.341469,126.342735 
	C75.209236,124.147148 84.861130,125.865273 93.338364,132.575867 
	C100.235695,138.035782 103.791145,145.354004 104.752289,153.406021 
	C106.383301,167.069855 102.802773,179.283646 90.263252,187.083389 
	C87.300117,188.926498 83.695129,189.737701 79.954750,191.078430 
z" />
	<path fill="#FFFFFF" opacity="1.000000" stroke="none" d="
M61.522236,37.213493 
	C72.237389,33.468369 81.735336,34.627571 90.408684,41.723175 
	C101.889320,51.115414 103.402534,69.032906 94.413452,80.074501 
	C83.829948,93.074570 67.380638,94.134285 54.901318,85.039886 
	C47.327274,79.520248 42.960293,65.604019 45.616753,55.716000 
	C47.960781,46.990910 53.063583,41.019245 61.522236,37.213493 
z" />
	<path fill="#FFFFFF" opacity="1.000000" stroke="none" d="
M578.301208,42.083733 
	C595.092590,42.014694 611.421814,41.626698 627.725647,42.104610 
	C644.836060,42.606167 656.166565,52.522076 657.722534,69.231880 
	C659.056946,83.562050 648.332031,97.670486 632.900208,98.703720 
	C614.534363,99.933411 596.023254,98.993271 577.000000,98.993271 
	C577.000000,93.358437 577.000000,88.085976 577.000000,82.813515 
	C577.000000,70.824692 576.969849,58.835705 577.036682,46.847256 
	C577.045410,45.278568 577.551941,43.712658 578.301208,42.083733 
z" />
	<path fill="#FFFFFF" opacity="1.000000" stroke="none" d="
M279.210205,100.339447 
	C272.704926,103.927612 266.105194,105.236809 259.023102,105.065430 
	C248.558350,104.812195 238.082916,105.000000 227.307892,105.000000 
	C227.307892,84.267632 227.307892,63.881897 227.307892,44.032513 
	C241.850586,44.032513 256.376801,42.757370 270.552002,44.439762 
	C281.703979,45.763336 289.996765,53.397415 293.442413,64.909691 
	C296.797699,76.120049 294.122131,85.887337 286.173767,94.265144 
	C284.148438,96.399902 281.736298,98.167656 279.210205,100.339447 
z" />
</svg>
