<?xml version="1.0" standalone="no"?>
<!DOCTYPE svg PUBLIC "-//W3C//DTD SVG 20010904//EN" "http://www.w3.org/TR/2001/REC-SVG-20010904/DTD/svg10.dtd">
<svg version="1.0" xmlns="http://www.w3.org/2000/svg" width="600.000000pt" height="110.000000pt" viewBox="0 0 600.000000 110.000000" preserveAspectRatio="xMidYMid meet">
	<g transform="translate(0.000000,110.000000) scale(0.100000,-0.100000)" fill="#6741d9" stroke="none">
		<path d="M435 1088 c-92 -17 -193 -74 -270 -152 -192 -195 -217 -469 -64 -696
115 -171 327 -264 527 -231 308 50 520 347 458 641 -46 217 -195 377 -402 430
-82 21 -166 24 -249 8z m185 -227 c64 -34 90 -118 60 -192 -12 -29 -11 -32 23
-67 39 -40 67 -97 67 -137 0 -23 -4 -25 -40 -25 -34 0 -40 3 -40 21 0 46 -46
103 -97 120 -76 25 -167 -28 -179 -102 -6 -38 -8 -39 -45 -39 -36 0 -39 2 -39
28 1 40 33 104 70 139 l33 31 -17 43 c-51 127 83 245 204 180z m-159 -526 c54
-44 141 -42 184 5 13 14 31 20 62 20 23 0 43 -3 43 -7 0 -16 -46 -71 -75 -92
-72 -49 -163 -51 -241 -6 -36 21 -84 78 -84 99 0 3 18 6 41 6 29 0 50 -7 70
-25z" />
		<path d="M514 792 c-14 -9 -34 -47 -34 -64 0 -8 9 -24 20 -36 29 -31 73 -29
99 4 26 33 26 45 0 78 -20 26 -61 35 -85 18z" />
		<path d="M1491 905 c-81 -25 -131 -95 -131 -184 0 -49 26 -121 50 -136 5 -3
-6 -26 -25 -50 -80 -105 -48 -252 67 -309 106 -53 246 -23 304 64 51 77 41
202 -21 260 l-24 22 30 41 c25 34 29 49 29 104 0 35 -5 74 -11 86 -24 46 -74
88 -123 102 -60 18 -87 18 -145 0z m120 -105 c29 -16 51 -67 44 -101 -15 -65
-103 -92 -150 -44 -54 53 -18 155 55 155 17 0 40 -5 51 -10z m10 -295 c16 -9
34 -27 39 -41 38 -98 -43 -188 -133 -150 -41 17 -57 36 -64 80 -15 94 72 155
158 111z" />
		<path d="M3901 909 c-66 -13 -131 -48 -181 -99 -176 -175 -126 -467 98 -577
51 -25 68 -28 157 -28 86 0 106 3 145 24 60 32 100 62 100 76 0 6 -18 28 -39
49 l-39 38 -29 -19 c-47 -32 -82 -43 -136 -43 -101 1 -182 63 -212 162 -8 28
-15 59 -15 68 0 40 34 123 63 157 70 79 172 95 277 41 l62 -32 34 38 c19 21
34 41 34 45 0 29 -103 86 -179 101 -61 11 -78 11 -140 -1z" />
		<path d="M1938 904 c-5 -4 -8 -162 -8 -351 l0 -344 63 3 62 3 3 121 3 122 92
4 c79 3 100 8 140 31 123 72 144 247 43 349 -54 53 -89 62 -246 66 -80 2 -148
0 -152 -4z m306 -150 c20 -20 26 -37 26 -68 -1 -74 -44 -106 -144 -106 l-66 0
0 100 0 100 79 0 c71 0 81 -2 105 -26z" />
		<path d="M2485 898 c-3 -7 -4 -164 -3 -348 l3 -335 220 0 220 0 3 49 c2 32 -1
52 -10 57 -7 5 -79 9 -160 9 l-148 0 0 85 0 84 133 3 132 3 0 55 0 55 -132 3
-133 3 0 84 0 84 158 3 157 3 0 55 0 55 -218 3 c-169 2 -219 0 -222 -10z" />
		<path d="M3047 903 c-4 -3 -7 -161 -7 -350 l0 -344 63 3 62 3 3 133 3 132 54
0 55 0 67 -135 68 -135 67 0 c48 0 68 4 68 13 0 6 -31 69 -69 139 l-68 127 47
29 c55 34 100 113 100 174 0 87 -69 178 -154 203 -51 15 -346 22 -359 8z m326
-124 c59 -30 74 -98 33 -146 -23 -27 -28 -28 -130 -31 l-106 -4 0 96 0 96 91
0 c50 0 100 -5 112 -11z" />
		<path d="M4317 904 c-4 -4 -7 -162 -7 -351 l0 -343 220 0 221 0 -3 58 -3 57
-158 3 -158 3 3 82 3 82 133 3 133 3 -3 57 -3 57 -133 3 -133 3 3 82 3 82 158
3 158 3 -3 57 -3 57 -211 3 c-115 1 -213 -1 -217 -4z" />
		<path d="M4867 903 c-4 -3 -7 -161 -7 -350 l0 -344 63 3 62 3 5 228 5 227 175
-230 175 -230 52 0 53 0 -2 348 -3 347 -60 0 -60 0 -5 -224 -5 -224 -178 227
-179 226 -42 0 c-24 0 -46 -3 -49 -7z" />
		<path d="M5537 904 c-4 -4 -7 -31 -7 -61 l0 -53 85 0 85 0 0 -290 0 -291 63 3
62 3 3 288 2 287 86 0 85 0 -3 58 -3 57 -226 3 c-124 1 -228 -1 -232 -4z" />
	</g>
</svg>
